<?xml version="1.0" encoding="utf-8"?>
<!-- Generator: Adobe Illustrator 22.0.1, SVG Export Plug-In . SVG Version: 6.00 Build 0)  -->
<svg version="1.1" id="Layer_1" xmlns="http://www.w3.org/2000/svg" xmlns:xlink="http://www.w3.org/1999/xlink" x="0px" y="0px"
	 viewBox="0 0 640 512" style="enable-background:new 0 0 640 512;" xml:space="preserve">
<style type="text/css">
	.st0{fill:#00BCD4;}
</style>
<path class="st0" d="M537.6,226.6c4.1-10.7,6.4-22.4,6.4-34.6c0-53-43-96-96-96c-19.7,0-38.1,6-53.3,16.2C367,64.2,315.3,32,256,32
	c-88.4,0-160,71.6-160,160c0,2.7,0.1,5.4,0.2,8.1C40.2,219.8,0,273.2,0,336c0,79.5,64.5,144,144,144h368c70.7,0,128-57.3,128-128
	C640,290.1,596,238.4,537.6,226.6z M404.7,315.3L299.3,420.7c-6.2,6.2-16.4,6.2-22.6,0L171.3,315.3c-10.1-10.1-2.9-27.3,11.3-27.3
	H248V176c0-8.8,7.2-16,16-16h48c8.8,0,16,7.2,16,16v112h65.4C407.6,288,414.8,305.2,404.7,315.3z"/>
</svg>
