<?xml version="1.0" encoding="utf-8"?>
<!-- Generator: Adobe Illustrator 22.0.1, SVG Export Plug-In . SVG Version: 6.00 Build 0)  -->
<svg version="1.1" id="Layer_1" xmlns="http://www.w3.org/2000/svg" xmlns:xlink="http://www.w3.org/1999/xlink" x="0px" y="0px"
	 viewBox="0 0 512 512" style="enable-background:new 0 0 512 512;" xml:space="preserve">
<style type="text/css">
	.st0{fill:#00BCD4;}
</style>
<path class="st0" d="M512,464c0,26.5-21.5,48-48,48H48c-26.5,0-48-21.5-48-48V200.7C0,186,6.8,172,18.4,162.9
	c24.9-19.5,45.5-35.4,164.2-121.5C199.4,29.2,232.8-0.3,256,0c23.2-0.4,56.6,29.2,73.4,41.4c118.7,86.1,139.3,102,164.2,121.5
	c11.6,9.1,18.4,23,18.4,37.8V464z M446.3,267.4c-2.6-3.7-7.7-4.6-11.3-1.9c-22.8,16.9-55.5,40.7-105.6,77.1
	c-16.8,12.3-50.2,41.8-73.4,41.4c-23.2,0.3-56.6-29.1-73.4-41.4c-50.1-36.4-82.7-60.2-105.6-77.1c-3.6-2.7-8.8-1.8-11.3,1.9
	l-9.1,13.2c-2.4,3.6-1.6,8.4,1.8,11c22.9,16.9,55.5,40.7,105.3,76.9c20.3,14.8,56.5,47.8,92.3,47.6c35.7,0.2,72-32.8,92.3-47.6
	c49.9-36.2,82.4-60,105.3-76.9c3.5-2.6,4.3-7.4,1.8-11L446.3,267.4z"/>
</svg>
