<svg id="Layer_1" data-name="Layer 1" xmlns="http://www.w3.org/2000/svg" viewBox="0 0 1000 1000"><defs><style>.cls-1,.cls-2,.cls-4,.cls-6{fill:none;stroke-miterlimit:10;}.cls-1{stroke:#993c5e;}.cls-1,.cls-2{stroke-width:13px;}.cls-2{stroke:#00bcd4;}.cls-3{fill:#50065b;}.cls-4{stroke:#50065b;stroke-width:0.75px;}.cls-5{fill:#232323;}.cls-6{stroke:#232323;stroke-width:3px;}.cls-7{font-size:21.97px;font-family:Roboto-Light, Roboto;letter-spacing:0.57em;}.cls-8{letter-spacing:0.6em;}.cls-9{letter-spacing:0.6em;}.cls-10{letter-spacing:0.59em;}.cls-11{letter-spacing:0.58em;}.cls-12{letter-spacing:0.61em;}</style></defs><title>lester john new logo design</title><polyline class="cls-1" points="190.57 421.22 149.28 469.89 187.81 502.58"/><polyline class="cls-2" points="301.49 431.61 329.88 455.69 288.59 504.37 270 488.6"/><rect class="cls-3" x="233.02" y="430.77" width="12.85" height="64.08" transform="translate(356.22 -45.02) rotate(40.31)"/><line class="cls-4" x1="255.53" y1="434.45" x2="271.03" y2="416.18"/><line class="cls-4" x1="208.81" y1="508.33" x2="223.37" y2="491.16"/><path class="cls-5" d="M440.75,500.41q-8.53-.23-12.1-3.7t-3.54-10.82l.15-61.91,9.23-1.56-.15,62a14.3,14.3,0,0,0,.39,3.77,5.23,5.23,0,0,0,1.28,2.39,5.61,5.61,0,0,0,2.38,1.34,24.2,24.2,0,0,0,3.67.75Z"/><path class="cls-5" d="M453.8,518a20.52,20.52,0,0,1-3.07-.31,16,16,0,0,1-3.18-.8l1.21-7.53a17.86,17.86,0,0,0,2.28.5,16.12,16.12,0,0,0,2.38.2c3.18,0,5.44-1,6.81-2.91s2-4.81,2-8.58l.12-50.69,9.23,0-.12,50.6q0,9.92-4.55,14.72T453.8,518ZM467,438.57a5.94,5.94,0,0,1-4.22-1.65,6.5,6.5,0,0,1,0-8.83,6.28,6.28,0,0,1,8.44,0,6.5,6.5,0,0,1,0,8.83A5.94,5.94,0,0,1,467,438.57Z"/><path class="cls-5" d="M530.81,424.24l9.23-1.57-.18,75.5q-3.18.87-8.14,1.76a64.69,64.69,0,0,1-11.41.87,29,29,0,0,1-10.71-1.91,23,23,0,0,1-8.12-5.38,23.51,23.51,0,0,1-5.19-8.49,32.5,32.5,0,0,1-1.81-11.27A36.86,36.86,0,0,1,496,462.84a24.66,24.66,0,0,1,4.54-8.52,20.62,20.62,0,0,1,7.3-5.54,23.61,23.61,0,0,1,9.88-2,24,24,0,0,1,7.88,1.21,24.8,24.8,0,0,1,5.1,2.3ZM530.72,459a18.8,18.8,0,0,0-4.85-2.69,18.29,18.29,0,0,0-6.94-1.31,14.84,14.84,0,0,0-6.8,1.42,12.5,12.5,0,0,0-4.62,4,16.71,16.71,0,0,0-2.6,6,33.79,33.79,0,0,0-.81,7.44q0,9,4.43,13.94t11.9,4.94a46.57,46.57,0,0,0,6.3-.33,31.2,31.2,0,0,0,3.92-.73Z"/><path class="cls-5" d="M562.83,474a33,33,0,0,1,2-11.95,25,25,0,0,1,5.28-8.47,21.25,21.25,0,0,1,7.55-5,23.48,23.48,0,0,1,8.74-1.67q10.41,0,16,6.53t5.51,19.81v1.54a15.11,15.11,0,0,1-.11,1.73l-35.31-.08q.57,8,4.63,12.21c2.71,2.79,6.93,4.18,12.69,4.2A33.45,33.45,0,0,0,598,492a28.79,28.79,0,0,0,5-1.62l1.27,7.74a27.48,27.48,0,0,1-5.91,1.87,42.08,42.08,0,0,1-9.57,1,30.4,30.4,0,0,1-11.65-2.06,21.62,21.62,0,0,1-8.08-5.63,22.82,22.82,0,0,1-4.69-8.49A35.72,35.72,0,0,1,562.83,474Zm35.43-5a15.5,15.5,0,0,0-3.1-10.27,10.73,10.73,0,0,0-8.87-4,12.13,12.13,0,0,0-5.61,1.22,13.26,13.26,0,0,0-4.12,3.22,14.8,14.8,0,0,0-2.64,4.55,22.53,22.53,0,0,0-1.26,5.26Z"/><path class="cls-5" d="M671.42,448.38a260.8,260.8,0,0,1-9.14,27.76q-5.25,13.28-10.13,23.78l-8.33,0q-4.85-10.53-10-23.83a261.28,261.28,0,0,1-9-27.8l9.92,0c.79,3.25,1.72,6.7,2.81,10.38s2.23,7.31,3.44,10.92,2.45,7.1,3.7,10.47,2.43,6.39,3.55,9q1.69-4,3.59-9t3.75-10.46q1.85-5.4,3.49-10.9t2.86-10.36Z"/><path class="cls-5" d="M723,500.09c-.73-1.45-1.61-3.08-2.67-4.87s-2.21-3.62-3.46-5.51-2.53-3.76-3.85-5.62-2.61-3.61-3.86-5.26c-1.26,1.65-2.55,3.41-3.88,5.3s-2.6,3.76-3.83,5.64-2.38,3.72-3.44,5.5-2,3.37-2.69,4.75l-9.52,0a124.41,124.41,0,0,1,8.32-13.72q4.81-7,9.6-13.32l-17-24.54,10.41,0,12.26,18.09,12.44-18,9.82,0-16.72,23.86q4.76,6.47,9.74,13.67a119.41,119.41,0,0,1,8.45,14.05Z"/><path class="cls-5" d="M746.66,509.77a17.82,17.82,0,0,0,2.83,1,13.62,13.62,0,0,0,3.42.45c3.64,0,6.48-.79,8.54-2.41s3.91-4.24,5.57-7.87Q760.8,489,755.43,475.62a219,219,0,0,1-8.92-27.06l9.92,0q1.08,4.47,2.61,9.63t3.4,10.63q1.86,5.46,4,10.92T771,490.28q3.79-10.39,6.59-20.61t5.31-21l9.52,0q-3.6,14.58-8,28T775,501.8a52.57,52.57,0,0,1-4.14,7.68,23.35,23.35,0,0,1-4.72,5.3,17.42,17.42,0,0,1-5.81,3.06,25,25,0,0,1-7.3,1,18.17,18.17,0,0,1-2.28-.15c-.79-.1-1.57-.24-2.33-.4s-1.45-.36-2.08-.55a10.3,10.3,0,0,1-1.34-.5Z"/><path class="cls-5" d="M846.29,455.74q-2.09,2.28-5.52,6.44t-7.36,9.21q-3.93,5-7.86,10.59t-6.92,10.6l28.37.07,0,7.74-39.38-.1v-6.15c1.6-2.9,3.55-6.11,5.88-9.61s4.76-7,7.31-10.45,5.05-6.73,7.47-9.8,4.53-5.66,6.32-7.77l-25.5-.06,0-7.74,37.2.09Z"/><line class="cls-6" x1="377.5" y1="492.5" x2="377.84" y2="438.85"/><text class="cls-7" transform="translate(175.6 598.35)">L<tspan class="cls-8" x="24.06" y="0">OREM IPSUM DO</tspan><tspan x="361.58" y="0">L</tspan><tspan class="cls-9" x="385.64" y="0">OR S</tspan><tspan class="cls-10" x="485.56" y="0">I</tspan><tspan class="cls-11" x="504.28" y="0">T</tspan><tspan class="cls-9" x="530.15" y="0" xml:space="preserve"> AM</tspan><tspan class="cls-12" x="607.79" y="0">E</tspan><tspan class="cls-11" x="633.68" y="0">T</tspan></text></svg>